if (_typeface_js && _typeface_js.loadFace) _typeface_js.loadFace({"glyphs":{"S":{"x_min":46.28125,"x_max":457.328125,"ha":514,"o":"m 253 980 b 50 738 112 979 50 884 b 394 230 50 468 394 463 b 250 51 394 126 355 51 b 106 230 145 51 106 126 l 106 284 l 46 284 l 46 234 b 251 -8 46 94 106 -8 b 457 234 397 -8 457 94 b 112 743 457 502 112 506 b 254 922 112 845 151 922 b 396 741 357 922 396 844 l 396 716 l 455 716 l 455 737 b 253 980 455 877 397 980 "},"/":{"x_min":37,"x_max":468.46875,"ha":515,"o":"m 412 972 l 37 0 l 92 0 l 468 972 l 412 972 "},"K":{"x_min":54.4375,"x_max":510.421875,"ha":561,"o":"m 445 0 l 510 0 l 220 519 l 492 972 l 427 972 l 117 458 l 117 972 l 54 972 l 54 0 l 117 0 l 117 351 l 182 456 l 445 0 "},"7":{"x_min":50.03125,"x_max":463.8125,"ha":525,"o":"m 131 0 l 195 0 l 463 915 l 463 973 l 50 973 l 50 913 l 399 913 l 131 0 "},"d":{"x_min":54.4375,"x_max":475.03125,"ha":535,"o":"m 54 972 l 54 0 l 264 0 b 475 241 411 0 475 98 l 475 730 b 264 972 475 873 411 972 l 54 972 m 117 58 l 117 913 l 262 913 b 412 733 367 913 412 840 l 412 238 b 262 58 412 131 368 58 l 117 58 "},",":{"x_min":61.25,"x_max":127.9375,"ha":186,"o":"m 61 -105 l 88 -105 l 127 5 l 127 122 l 68 122 l 68 0 l 88 0 l 61 -105 "},"Y":{"x_min":36.75,"x_max":528.109375,"ha":576,"o":"m 250 0 l 313 0 l 313 373 l 528 972 l 466 972 l 284 461 l 102 972 l 36 972 l 250 373 l 250 0 "},"E":{"x_min":54.4375,"x_max":430.109375,"ha":488,"o":"m 117 522 l 117 913 l 430 913 l 430 972 l 54 972 l 54 0 l 430 0 l 430 58 l 117 58 l 117 463 l 377 463 l 377 522 l 117 522 "},"y":{"x_min":36.75,"x_max":528.109375,"ha":576,"o":"m 250 0 l 313 0 l 313 373 l 528 972 l 466 972 l 284 461 l 102 972 l 36 972 l 250 373 l 250 0 "},"\"":{"x_min":54.4375,"x_max":225.9375,"ha":286,"o":"m 54 973 l 61 731 l 107 731 l 115 973 l 54 973 m 164 973 l 172 731 l 217 731 l 225 973 l 164 973 "},"g":{"x_min":50.359375,"x_max":461.421875,"ha":522,"o":"m 255 980 b 50 734 110 980 50 875 l 50 237 b 255 -8 50 97 110 -8 b 461 237 401 -8 461 97 l 461 501 l 274 501 l 274 443 l 401 443 l 401 233 b 257 51 401 129 362 51 b 112 233 152 51 112 129 l 112 738 b 257 922 112 843 152 922 b 401 738 362 922 401 843 l 401 662 l 461 662 l 461 734 b 255 980 461 875 401 980 "},"e":{"x_min":54.4375,"x_max":430.109375,"ha":488,"o":"m 117 522 l 117 913 l 430 913 l 430 972 l 54 972 l 54 0 l 430 0 l 430 58 l 117 58 l 117 463 l 377 463 l 377 522 l 117 522 "},"J":{"x_min":39.46875,"x_max":292.640625,"ha":351,"o":"m 39 0 b 102 0 61 -1 81 -1 b 292 238 217 5 292 68 l 292 972 l 230 972 l 230 234 b 95 59 230 115 185 66 b 39 58 77 58 58 56 l 39 0 "},"|":{"x_min":147,"x_max":198.71875,"ha":347,"o":"m 147 1005 l 147 -31 l 198 -31 l 198 1005 l 147 1005 "},"^":{"x_min":45,"x_max":512,"ha":568,"o":"m 277 912 l 458 542 l 512 542 l 302 972 l 254 972 l 45 542 l 98 542 l 277 912 "},"q":{"x_min":50.484375,"x_max":514.625,"ha":540,"o":"m 260 981 b 50 735 114 981 50 876 l 50 237 b 260 -7 50 96 114 -7 b 385 31 313 -7 354 7 b 498 -25 408 -7 445 -25 l 514 -25 l 514 31 l 499 31 b 424 69 465 31 441 40 b 469 237 456 112 469 171 l 469 735 b 260 981 469 876 405 981 m 260 922 b 407 739 364 922 407 844 l 407 233 b 260 50 407 128 364 50 b 113 233 155 50 113 128 l 113 739 b 260 922 113 844 155 922 "},"b":{"x_min":54.4375,"x_max":466.859375,"ha":525,"o":"m 54 972 l 54 0 l 258 0 b 466 225 404 0 466 84 l 466 309 b 323 518 466 419 427 497 b 449 709 420 538 449 604 l 449 765 b 254 972 449 900 397 972 l 54 972 m 117 543 l 117 913 l 253 913 b 386 759 355 913 386 861 l 386 697 b 223 543 386 573 334 543 l 117 543 m 117 58 l 117 484 l 235 484 b 404 313 348 484 404 440 l 404 226 b 258 58 404 118 363 58 l 117 58 "},"D":{"x_min":54.4375,"x_max":475.03125,"ha":535,"o":"m 54 972 l 54 0 l 264 0 b 475 241 411 0 475 98 l 475 730 b 264 972 475 873 411 972 l 54 972 m 117 58 l 117 913 l 262 913 b 412 733 367 913 412 840 l 412 238 b 262 58 412 131 368 58 l 117 58 "},"z":{"x_min":46.140625,"x_max":480.328125,"ha":539,"o":"m 474 58 l 111 58 l 480 912 l 480 972 l 63 972 l 63 913 l 415 913 l 46 58 l 46 0 l 474 0 l 474 58 "},"w":{"x_min":42,"x_max":778,"ha":838,"o":"m 416 795 l 544 0 l 625 0 l 778 972 l 722 972 l 584 88 l 451 968 l 384 968 l 246 86 l 103 972 l 42 972 l 195 0 l 282 0 l 416 795 "},"$":{"x_min":51.71875,"x_max":462.78125,"ha":524,"o":"m 284 1056 l 231 1056 l 231 973 b 55 733 108 961 55 869 b 400 236 55 463 400 468 b 255 55 400 130 360 55 b 111 236 151 55 111 130 l 111 293 l 51 293 l 51 238 b 231 -1 51 108 103 8 l 231 -79 l 284 -79 l 284 -1 b 462 238 411 9 462 109 b 118 737 462 506 118 501 b 259 916 118 840 156 916 b 401 736 363 916 401 840 l 401 711 l 461 711 l 461 733 b 284 973 461 862 411 962 l 284 1056 "},"\\":{"x_min":37,"x_max":468,"ha":515,"o":"m 37 972 l 412 0 l 468 0 l 92 972 l 37 972 "},"~":{"x_min":38,"x_max":501,"ha":551,"o":"m 168 553 b 38 457 116 553 77 521 l 70 428 b 167 503 99 475 126 503 b 382 416 239 504 303 414 b 501 511 430 419 464 451 l 468 543 b 381 468 441 500 419 469 b 168 553 314 465 249 555 "},"-":{"x_min":51.71875,"x_max":302.171875,"ha":361,"o":"m 51 456 l 302 456 l 302 515 l 51 515 l 51 456 "},"Q":{"x_min":50.484375,"x_max":514.625,"ha":567,"o":"m 260 981 b 50 735 114 981 50 876 l 50 237 b 260 -7 50 96 114 -7 b 385 31 313 -7 354 7 b 498 -25 408 -7 445 -25 l 514 -25 l 514 31 l 499 31 b 424 69 465 31 441 40 b 469 237 456 112 469 171 l 469 735 b 260 981 469 876 405 981 m 260 922 b 407 739 364 922 407 844 l 407 233 b 260 50 407 128 364 50 b 113 233 155 50 113 128 l 113 739 b 260 922 113 844 155 922 "},"M":{"x_min":54.4375,"x_max":632.921875,"ha":701,"o":"m 573 863 l 573 0 l 632 0 l 632 972 l 543 972 l 344 112 l 144 972 l 54 972 l 54 0 l 110 0 l 110 860 l 311 0 l 374 0 l 573 863 "},"C":{"x_min":50.359375,"x_max":461.421875,"ha":519,"o":"m 255 980 b 50 734 110 980 50 875 l 50 237 b 255 -8 50 97 110 -8 b 461 237 401 -8 461 97 l 461 348 l 401 348 l 401 233 b 257 51 401 129 362 51 b 112 233 152 51 112 129 l 112 738 b 257 922 112 843 152 922 b 401 738 362 922 401 843 l 401 654 l 461 654 l 461 734 b 255 980 461 875 401 980 "},"[":{"x_min":58.53125,"x_max":270.859375,"ha":322,"o":"m 121 54 l 121 919 l 270 919 l 270 973 l 58 973 l 58 0 l 270 0 l 270 54 l 121 54 "},"L":{"x_min":54.4375,"x_max":416.5,"ha":465,"o":"m 416 0 l 416 58 l 117 58 l 117 972 l 54 972 l 54 0 l 416 0 "},"!":{"x_min":54.4375,"x_max":117.0625,"ha":175,"o":"m 62 215 l 108 215 l 117 465 l 117 973 l 54 973 l 54 465 l 62 215 m 55 120 l 55 0 l 115 0 l 115 120 l 55 120 "}," ":{"x_min":0,"x_max":0,"ha":215},"{":{"x_min":41.1875,"x_max":306.609375,"ha":356,"o":"m 306 919 l 306 973 l 256 973 b 136 829 171 973 141 913 l 126 637 b 41 515 124 563 116 527 l 41 456 b 126 334 116 445 124 408 l 136 144 b 256 0 141 58 171 0 l 306 0 l 306 54 l 276 54 b 193 169 209 54 197 98 l 185 343 b 97 486 182 409 171 465 b 185 629 171 508 182 563 l 193 804 b 276 919 197 873 209 919 l 306 919 "},"X":{"x_min":42,"x_max":557,"ha":611,"o":"m 490 0 l 557 0 l 343 504 l 543 972 l 483 972 l 302 554 l 122 972 l 56 972 l 257 504 l 42 0 l 103 0 l 296 452 l 490 0 "},"P":{"x_min":54.4375,"x_max":455.96875,"ha":508,"o":"m 54 972 l 54 0 l 117 0 l 117 400 l 235 400 b 455 630 386 400 455 476 l 455 736 b 251 972 455 877 398 972 l 54 972 m 117 458 l 117 913 l 251 913 b 393 740 357 913 393 845 l 393 626 b 235 458 393 508 345 458 l 117 458 "},"%":{"x_min":51.71875,"x_max":771.75,"ha":840,"o":"m 179 975 b 51 818 88 975 51 905 l 51 522 b 179 365 51 434 88 365 b 308 522 272 365 308 434 l 308 818 b 179 975 308 905 272 975 m 577 973 l 201 0 l 242 0 l 617 973 l 577 973 m 179 934 b 265 819 243 934 265 881 l 265 519 b 179 405 265 458 243 405 b 93 519 114 405 93 458 l 93 819 b 179 934 93 881 114 934 m 643 605 b 514 447 551 605 514 534 l 514 155 b 643 -2 514 68 551 -2 b 771 155 736 -2 771 68 l 771 447 b 643 605 771 534 736 605 m 643 563 b 729 450 709 563 729 512 l 729 152 b 643 37 729 91 709 37 b 558 152 579 37 558 91 l 558 450 b 643 563 558 512 579 563 "},"#":{"x_min":42,"x_max":521,"ha":575,"o":"m 516 670 l 521 718 l 437 718 l 463 973 l 410 973 l 384 718 l 225 718 l 251 973 l 198 973 l 172 718 l 81 718 l 77 670 l 168 670 l 135 355 l 46 355 l 42 308 l 131 308 l 99 0 l 152 0 l 183 308 l 344 308 l 311 0 l 364 0 l 397 308 l 480 308 l 484 355 l 401 355 l 433 670 l 516 670 m 348 355 l 188 355 l 220 670 l 380 670 l 348 355 "},"_":{"x_min":35.390625,"x_max":654.703125,"ha":713,"o":"m 35 -13 l 35 -62 l 654 -62 l 654 -13 l 35 -13 "},"+":{"x_min":47.640625,"x_max":481.828125,"ha":539,"o":"m 481 462 l 481 509 l 287 509 l 287 709 l 240 709 l 240 509 l 47 509 l 47 462 l 240 462 l 240 259 l 287 259 l 287 462 l 481 462 "},")":{"x_min":42.1875,"x_max":257.25,"ha":321,"o":"m 42 973 l 42 919 l 69 919 b 194 758 168 919 194 856 l 194 215 b 69 54 194 115 170 54 l 42 54 l 42 0 l 72 0 b 257 215 215 0 257 79 l 257 758 b 72 973 257 894 213 973 l 42 973 "},"'":{"x_min":53.078125,"x_max":112.96875,"ha":169,"o":"m 53 973 l 59 731 l 106 731 l 112 973 l 53 973 "},"}":{"x_min":42.390625,"x_max":309.171875,"ha":356,"o":"m 42 973 l 42 919 l 73 919 b 155 804 139 919 151 873 l 164 629 b 253 486 167 563 177 508 b 164 343 177 465 167 409 l 155 169 b 73 54 151 98 139 54 l 42 54 l 42 0 l 92 0 b 212 144 178 0 207 58 l 222 334 b 309 456 226 408 232 445 l 309 515 b 222 637 232 527 226 563 l 212 829 b 92 973 207 913 178 973 l 42 973 "},"a":{"x_min":41,"x_max":553,"ha":606,"o":"m 442 215 l 490 0 l 553 0 l 340 973 l 249 973 l 41 0 l 98 0 l 145 215 l 442 215 m 292 900 l 433 270 l 155 270 l 292 900 "},"T":{"x_min":24.5,"x_max":475.03125,"ha":513,"o":"m 281 0 l 281 913 l 475 913 l 475 972 l 24 972 l 24 913 l 219 913 l 219 0 l 281 0 "},"=":{"x_min":51.71875,"x_max":363.421875,"ha":424,"o":"m 51 613 l 51 566 l 363 566 l 363 613 l 51 613 m 51 444 l 51 397 l 363 397 l 363 444 l 51 444 "},"N":{"x_min":54.4375,"x_max":479.109375,"ha":543,"o":"m 111 866 l 409 0 l 479 0 l 479 972 l 421 972 l 421 151 l 136 972 l 54 972 l 54 0 l 111 0 l 111 866 "},"2":{"x_min":54.4375,"x_max":465.5,"ha":524,"o":"m 259 980 b 54 730 112 980 54 870 l 54 668 l 114 668 l 114 734 b 257 922 114 838 152 922 b 402 730 366 922 402 843 b 54 47 402 463 54 390 l 54 0 l 457 0 l 457 58 l 117 58 l 117 69 b 465 733 121 355 465 452 b 259 980 465 875 408 980 "},"j":{"x_min":39.46875,"x_max":292.640625,"ha":351,"o":"m 39 0 b 102 0 61 -1 81 -1 b 292 238 217 5 292 68 l 292 972 l 230 972 l 230 234 b 95 59 230 115 185 66 b 39 58 77 58 58 56 l 39 0 "},"Z":{"x_min":46.140625,"x_max":480.328125,"ha":539,"o":"m 474 58 l 111 58 l 480 912 l 480 972 l 63 972 l 63 913 l 415 913 l 46 58 l 46 0 l 474 0 l 474 58 "},"":{"x_min":78.8125,"x_max":140.0625,"ha":0,"o":"m 140 -156 l 140 -47 l 86 -47 l 86 -162 l 104 -162 l 78 -244 l 103 -244 l 140 -156 "},"u":{"x_min":51.71875,"x_max":458.6875,"ha":522,"o":"m 114 972 l 51 972 l 51 237 b 255 -8 51 98 110 -8 b 458 237 401 -8 458 98 l 458 972 l 400 972 l 400 234 b 257 50 400 130 362 50 b 114 234 152 50 114 130 l 114 972 "},"1":{"x_min":87.109375,"x_max":298.078125,"ha":390,"o":"m 235 0 l 298 0 l 298 973 l 249 973 b 87 837 224 901 181 844 l 87 782 b 235 863 151 787 201 818 l 235 0 "},"k":{"x_min":54.4375,"x_max":510.421875,"ha":561,"o":"m 445 0 l 510 0 l 220 519 l 492 972 l 427 972 l 117 458 l 117 972 l 54 972 l 54 0 l 117 0 l 117 351 l 182 456 l 445 0 "},"<":{"x_min":48.75,"x_max":448.921875,"ha":514,"o":"m 448 325 l 110 485 l 448 645 l 448 695 l 48 508 l 48 461 l 448 275 l 448 325 "},"t":{"x_min":21.78125,"x_max":472.3125,"ha":506,"o":"m 277 0 l 277 913 l 472 913 l 472 972 l 21 972 l 21 913 l 215 913 l 215 0 l 277 0 "},"W":{"x_min":42,"x_max":778,"ha":838,"o":"m 416 795 l 544 0 l 625 0 l 778 972 l 722 972 l 584 88 l 451 968 l 384 968 l 246 86 l 103 972 l 42 972 l 195 0 l 282 0 l 416 795 "},"v":{"x_min":41,"x_max":550,"ha":603,"o":"m 41 972 l 250 0 l 343 0 l 550 972 l 491 972 l 298 73 l 104 972 l 41 972 "},">":{"x_min":54.4375,"x_max":454.609375,"ha":514,"o":"m 54 276 l 454 461 l 454 509 l 54 695 l 54 645 l 394 485 l 54 325 l 54 276 "},"s":{"x_min":46.28125,"x_max":457.328125,"ha":514,"o":"m 253 980 b 50 738 112 979 50 884 b 394 230 50 468 394 463 b 250 51 394 126 355 51 b 106 230 145 51 106 126 l 106 284 l 46 284 l 46 234 b 251 -8 46 94 106 -8 b 457 234 397 -8 457 94 b 112 743 457 502 112 506 b 254 922 112 845 151 922 b 396 741 357 922 396 844 l 396 716 l 455 716 l 455 737 b 253 980 455 877 397 980 "},"B":{"x_min":54.4375,"x_max":466.859375,"ha":525,"o":"m 54 972 l 54 0 l 258 0 b 466 225 404 0 466 84 l 466 309 b 323 518 466 419 427 497 b 449 709 420 538 449 604 l 449 765 b 254 972 449 900 397 972 l 54 972 m 117 543 l 117 913 l 253 913 b 386 759 355 913 386 861 l 386 697 b 223 543 386 573 334 543 l 117 543 m 117 58 l 117 484 l 235 484 b 404 313 348 484 404 440 l 404 226 b 258 58 404 118 363 58 l 117 58 "},"?":{"x_min":45.3125,"x_max":450.921875,"ha":504,"o":"m 248 980 b 45 730 101 980 45 870 l 45 666 l 105 666 l 105 734 b 246 922 105 837 140 922 b 388 736 354 922 388 841 b 195 270 388 527 195 481 b 201 216 195 251 197 233 l 259 216 b 252 268 254 233 252 252 b 450 733 252 463 450 515 b 248 980 450 873 396 980 m 199 120 l 199 0 l 259 0 l 259 120 l 199 120 "},"H":{"x_min":54.4375,"x_max":477.75,"ha":543,"o":"m 413 456 l 413 0 l 477 0 l 477 972 l 413 972 l 413 515 l 117 515 l 117 972 l 54 972 l 54 0 l 117 0 l 117 456 l 413 456 "},"c":{"x_min":50.359375,"x_max":461.421875,"ha":519,"o":"m 255 980 b 50 734 110 980 50 875 l 50 237 b 255 -8 50 97 110 -8 b 461 237 401 -8 461 97 l 461 348 l 401 348 l 401 233 b 257 51 401 129 362 51 b 112 233 152 51 112 129 l 112 738 b 257 922 112 843 152 922 b 401 738 362 922 401 843 l 401 654 l 461 654 l 461 734 b 255 980 461 875 401 980 "},"&":{"x_min":54.4375,"x_max":509.0625,"ha":560,"o":"m 417 913 l 417 972 l 283 972 b 54 730 129 972 54 886 l 54 706 b 179 509 54 613 93 534 b 54 308 93 480 54 400 l 54 216 b 235 -8 54 83 110 -8 b 396 93 307 -8 367 24 b 416 0 396 54 401 27 l 481 0 b 457 127 457 40 457 79 l 457 477 l 509 477 l 509 536 l 457 536 l 457 644 l 394 644 l 394 536 l 247 536 b 117 694 164 540 117 606 l 117 733 b 283 913 117 852 172 913 l 417 913 m 394 477 l 394 186 b 257 50 393 100 336 50 b 117 220 159 50 117 119 l 117 309 b 255 477 117 406 166 472 l 394 477 "},"I":{"x_min":54.4375,"x_max":117.0625,"ha":175,"o":"m 54 972 l 54 0 l 117 0 l 117 972 l 54 972 "},"G":{"x_min":50.359375,"x_max":461.421875,"ha":522,"o":"m 255 980 b 50 734 110 980 50 875 l 50 237 b 255 -8 50 97 110 -8 b 461 237 401 -8 461 97 l 461 501 l 274 501 l 274 443 l 401 443 l 401 233 b 257 51 401 129 362 51 b 112 233 152 51 112 129 l 112 738 b 257 922 112 843 152 922 b 401 738 362 922 401 843 l 401 662 l 461 662 l 461 734 b 255 980 461 875 401 980 "},"(":{"x_min":58.53125,"x_max":272.21875,"ha":321,"o":"m 272 919 l 272 973 l 242 973 b 58 758 100 973 58 894 l 58 215 b 242 0 58 79 99 0 l 272 0 l 272 54 l 245 54 b 121 215 144 54 121 115 l 121 758 b 245 919 121 856 145 919 l 272 919 "},"`":{"x_min":56,"x_max":221,"ha":274,"o":"m 56 1177 l 171 1045 l 221 1045 l 124 1177 l 56 1177 "},"U":{"x_min":51.71875,"x_max":458.6875,"ha":522,"o":"m 114 972 l 51 972 l 51 237 b 255 -8 51 98 110 -8 b 458 237 401 -8 458 98 l 458 972 l 400 972 l 400 234 b 257 50 400 130 362 50 b 114 234 152 50 114 130 l 114 972 "},"F":{"x_min":54.4375,"x_max":416.5,"ha":467,"o":"m 117 498 l 117 913 l 416 913 l 416 972 l 54 972 l 54 0 l 117 0 l 117 440 l 363 440 l 363 498 l 117 498 "},"r":{"x_min":54.4375,"x_max":480.46875,"ha":536,"o":"m 54 972 l 54 0 l 117 0 l 117 434 l 216 434 b 394 269 325 434 394 398 l 394 116 b 415 0 394 63 398 29 l 480 0 b 457 116 460 31 457 76 l 457 268 b 319 466 457 373 417 444 b 457 668 413 488 457 554 l 457 752 b 253 972 457 890 398 972 l 54 972 m 117 493 l 117 913 l 251 913 b 394 747 355 913 394 851 l 394 655 b 217 493 394 524 329 493 l 117 493 "},":":{"x_min":54.4375,"x_max":115.6875,"ha":174,"o":"m 54 651 l 54 529 l 115 529 l 115 651 l 54 651 m 54 122 l 54 0 l 115 0 l 115 122 l 54 122 "},"x":{"x_min":42,"x_max":557,"ha":611,"o":"m 490 0 l 557 0 l 343 504 l 543 972 l 483 972 l 302 554 l 122 972 l 56 972 l 257 504 l 42 0 l 103 0 l 296 452 l 490 0 "},"*":{"x_min":44.921875,"x_max":491.359375,"ha":547,"o":"m 491 772 l 475 824 l 281 753 l 294 965 l 240 965 l 254 753 l 61 827 l 44 775 l 246 726 l 115 562 l 159 532 l 268 710 l 377 531 l 419 562 l 289 726 l 491 772 "},"V":{"x_min":41,"x_max":550,"ha":603,"o":"m 41 972 l 250 0 l 343 0 l 550 972 l 491 972 l 298 73 l 104 972 l 41 972 "},"h":{"x_min":54.4375,"x_max":477.75,"ha":543,"o":"m 413 456 l 413 0 l 477 0 l 477 972 l 413 972 l 413 515 l 117 515 l 117 972 l 54 972 l 54 0 l 117 0 l 117 456 l 413 456 "},"0":{"x_min":50.359375,"x_max":469.578125,"ha":529,"o":"m 50 237 b 259 -8 50 95 114 -8 b 469 237 405 -8 469 95 l 469 734 b 259 980 469 877 405 980 b 50 734 114 980 50 877 l 50 237 m 112 738 b 259 922 112 844 155 922 b 406 738 364 922 406 844 l 406 234 b 259 50 406 127 364 50 b 112 234 155 50 112 127 l 112 738 "},".":{"x_min":54.4375,"x_max":115.6875,"ha":174,"o":"m 54 122 l 54 0 l 115 0 l 115 122 l 54 122 "},"@":{"x_min":46.21875,"x_max":892.859375,"ha":956,"o":"m 530 1013 b 46 397 190 1013 46 716 b 469 -65 46 111 176 -65 b 722 8 560 -65 645 -45 l 726 66 b 472 -13 650 6 562 -13 b 100 394 216 -13 100 136 b 528 962 100 698 227 962 b 843 619 747 962 843 830 b 675 252 845 487 808 254 b 623 336 630 252 619 297 l 664 733 l 608 733 l 598 641 b 475 740 582 705 540 738 b 303 540 368 741 315 655 l 289 402 b 419 190 277 290 308 191 b 566 295 490 188 539 229 b 660 198 568 238 598 198 b 892 620 809 200 892 411 b 530 1013 892 854 789 1013 m 490 683 b 589 537 571 683 597 615 l 574 402 b 443 245 566 318 528 244 b 345 402 357 245 337 322 l 357 533 b 490 683 367 618 406 683 "},"f":{"x_min":54.4375,"x_max":416.5,"ha":467,"o":"m 117 498 l 117 913 l 416 913 l 416 972 l 54 972 l 54 0 l 117 0 l 117 440 l 363 440 l 363 498 l 117 498 "},";":{"x_min":61.25,"x_max":127.9375,"ha":186,"o":"m 68 651 l 68 529 l 127 529 l 127 651 l 68 651 m 61 -105 l 88 -105 l 127 5 l 127 122 l 68 122 l 68 0 l 88 0 l 61 -105 "},"i":{"x_min":54.4375,"x_max":117.0625,"ha":175,"o":"m 54 972 l 54 0 l 117 0 l 117 972 l 54 972 "},"6":{"x_min":50.359375,"x_max":470.9375,"ha":531,"o":"m 261 980 b 50 731 112 980 50 877 l 50 237 b 261 -8 50 95 114 -8 b 470 237 406 -8 470 95 l 470 356 b 283 594 470 493 416 594 b 112 505 197 594 144 559 l 112 730 b 262 922 112 844 155 922 b 406 743 367 922 406 847 l 406 727 l 466 727 l 466 738 b 261 980 466 880 406 980 m 261 534 b 408 352 366 534 408 456 l 408 234 b 261 51 408 127 366 51 b 112 234 155 51 112 127 l 112 352 b 261 534 112 456 155 534 "},"A":{"x_min":41,"x_max":553,"ha":606,"o":"m 442 215 l 490 0 l 553 0 l 340 973 l 249 973 l 41 0 l 98 0 l 145 215 l 442 215 m 292 900 l 433 270 l 155 270 l 292 900 "},"n":{"x_min":54.4375,"x_max":479.109375,"ha":543,"o":"m 111 866 l 409 0 l 479 0 l 479 972 l 421 972 l 421 151 l 136 972 l 54 972 l 54 0 l 111 0 l 111 866 "},"O":{"x_min":50.359375,"x_max":469.578125,"ha":529,"o":"m 50 237 b 258 -8 50 95 114 -8 b 469 237 405 -8 469 95 l 469 734 b 258 980 469 876 405 980 b 50 734 114 980 50 876 l 50 237 m 112 738 b 258 922 112 844 153 922 b 406 738 364 922 406 844 l 406 233 b 258 50 406 127 364 50 b 112 233 153 50 112 127 l 112 738 "},"3":{"x_min":51.71875,"x_max":462.78125,"ha":525,"o":"m 257 980 b 51 734 111 980 51 876 l 51 700 l 111 700 l 111 738 b 255 922 111 844 151 922 b 400 733 360 922 400 844 l 400 698 b 261 536 400 605 347 541 l 194 536 l 194 477 l 258 477 b 400 313 351 473 400 415 l 400 238 b 255 50 400 127 360 50 b 111 234 151 50 111 129 l 111 293 l 51 293 l 51 237 b 257 -8 51 95 111 -8 b 462 237 402 -8 462 95 l 462 312 b 336 509 462 408 421 483 b 462 711 417 538 462 615 l 462 734 b 257 980 462 876 402 980 "},"]":{"x_min":46.28125,"x_max":258.609375,"ha":322,"o":"m 46 54 l 46 0 l 258 0 l 258 973 l 46 973 l 46 919 l 196 919 l 196 54 l 46 54 "},"m":{"x_min":54.4375,"x_max":632.921875,"ha":701,"o":"m 573 863 l 573 0 l 632 0 l 632 972 l 543 972 l 344 112 l 144 972 l 54 972 l 54 0 l 110 0 l 110 860 l 311 0 l 374 0 l 573 863 "},"9":{"x_min":49,"x_max":468.21875,"ha":531,"o":"m 258 981 b 49 734 112 981 49 877 l 49 616 b 236 379 49 479 103 379 b 405 481 321 379 375 409 l 405 243 b 257 50 405 127 363 50 b 110 231 152 50 110 126 l 110 247 l 50 247 l 50 234 b 258 -8 50 93 112 -8 b 468 240 406 -8 468 95 l 468 734 b 258 981 468 877 405 981 m 258 922 b 405 738 363 922 405 844 l 405 620 b 258 437 405 515 363 437 b 111 620 153 437 111 515 l 111 738 b 258 922 111 844 153 922 "},"l":{"x_min":54.4375,"x_max":416.5,"ha":465,"o":"m 416 0 l 416 58 l 117 58 l 117 972 l 54 972 l 54 0 l 416 0 "},"8":{"x_min":47.640625,"x_max":480.46875,"ha":539,"o":"m 264 980 b 47 744 119 980 47 888 l 47 713 b 175 509 47 611 83 536 b 47 301 80 480 47 404 l 47 231 b 264 -8 47 88 117 -8 b 480 231 409 -8 480 88 l 480 301 b 353 509 480 402 446 481 b 480 713 443 534 480 613 l 480 744 b 264 980 480 888 406 980 m 264 922 b 417 743 364 922 417 856 l 417 702 b 264 536 417 593 364 536 b 110 702 163 536 110 593 l 110 743 b 264 922 110 856 161 922 m 264 477 b 417 306 367 477 417 420 l 417 233 b 264 50 416 120 367 50 b 110 233 160 50 110 120 l 110 306 b 264 477 110 420 159 477 "},"p":{"x_min":54.4375,"x_max":455.96875,"ha":506,"o":"m 54 972 l 54 0 l 117 0 l 117 400 l 235 400 b 455 630 386 400 455 476 l 455 736 b 251 972 455 877 398 972 l 54 972 m 117 458 l 117 913 l 251 913 b 393 740 357 913 393 845 l 393 626 b 235 458 393 508 345 458 l 117 458 "},"4":{"x_min":42.1875,"x_max":509.0625,"ha":560,"o":"m 509 215 l 509 273 l 428 273 l 428 973 l 357 973 l 42 275 l 42 215 l 367 215 l 367 0 l 428 0 l 428 215 l 509 215 m 367 854 l 367 273 l 99 273 l 367 854 "},"R":{"x_min":54.4375,"x_max":480.46875,"ha":536,"o":"m 54 972 l 54 0 l 117 0 l 117 434 l 216 434 b 394 269 325 434 394 398 l 394 116 b 415 0 394 63 398 29 l 480 0 b 457 116 460 31 457 76 l 457 268 b 319 466 457 373 417 444 b 457 668 413 488 457 554 l 457 752 b 253 972 457 890 398 972 l 54 972 m 117 493 l 117 913 l 251 913 b 394 747 355 913 394 851 l 394 655 b 217 493 394 524 329 493 l 117 493 "},"o":{"x_min":50.359375,"x_max":469.578125,"ha":529,"o":"m 50 237 b 258 -8 50 95 114 -8 b 469 237 405 -8 469 95 l 469 734 b 258 980 469 876 405 980 b 50 734 114 980 50 876 l 50 237 m 112 738 b 258 922 112 844 153 922 b 406 738 364 922 406 844 l 406 233 b 258 50 406 127 364 50 b 112 233 153 50 112 127 l 112 738 "},"5":{"x_min":51.71875,"x_max":464.140625,"ha":525,"o":"m 142 913 l 443 913 l 443 973 l 85 973 l 61 454 l 119 454 l 119 470 b 255 581 138 543 186 581 b 401 398 360 581 401 502 l 401 234 b 255 51 401 130 360 51 b 111 234 152 51 111 130 l 111 290 l 51 290 l 51 237 b 257 -8 51 97 112 -8 b 464 237 402 -8 464 97 l 464 404 b 279 641 464 538 411 641 b 125 566 208 641 157 619 l 142 913 "}}}
